<?xml version="1.0" encoding="UTF-8"?>
<svg id="Layer_1" xmlns="http://www.w3.org/2000/svg" version="1.1" viewBox="0 0 1557.7 1557.7">
  <!-- Generator: Adobe Illustrator 29.1.0, SVG Export Plug-In . SVG Version: 2.1.0 Build 142)  -->
  <defs>
    <style>
      .st0 {
        fill: #fa5142;
      }
    </style>
  </defs>
  <g>
    <path class="st0" d="M559.2,784.2h-290.5v-131.1l290.5-345.3h139v352.7h72v123.7h-72v107.3h-139v-107.3ZM559.2,660.5v-180.6l-153.5,180.6h153.5Z"/>
    <path class="st0" d="M915.9,583c-25.1-13.3-43.3-28.2-54.8-44.6-15.7-22.4-23.5-48.3-23.5-77.5,0-48,22.6-87.3,67.7-117.8,35.2-23.5,81.8-35.2,139.8-35.2s133.4,14.6,170.1,43.8c36.7,29.2,55,66,55,110.4s-7.3,50-21.9,72.4c-11,16.7-28.2,32.9-51.7,48.5,31.1,14.9,54.2,34.6,69.5,59.1s22.9,51.7,22.9,81.4-6.6,55.5-19.8,80.5c-13.2,24.9-29.4,44.2-48.5,57.7-19.2,13.6-43.1,23.6-71.6,29.9-28.6,6.4-59.1,9.6-91.4,9.6-60.8,0-107.3-7.2-139.4-21.5-32.1-14.4-56.5-35.5-73.2-63.4s-25.1-59.1-25.1-93.6,7.8-62.2,23.5-85.5c15.7-23.4,39.8-41.4,72.4-54.2h0ZM978.9,717.3c0,25.3,7.7,46,23.1,62.1,15.4,16.1,33,24.1,52.9,24.1s36.1-8.2,51.3-24.5c15.1-16.3,22.7-37,22.7-62.1s-7.6-46.1-22.9-62.2c-15.3-16.2-33-24.3-53-24.3s-37.1,7.8-51.9,23.5c-14.7,15.7-22.1,36.8-22.1,63.4h0ZM987.5,470.3c0,19.8,6.2,35.8,18.6,48,12.4,12.1,28.9,18.2,49.5,18.2s33.3-6,45-18,17.6-27.5,17.6-46.6-6.1-35.9-18.4-48.3-27.9-18.6-47-18.6-35,6.1-47.2,18.2c-12.1,12.1-18.2,27.9-18.2,47.2h.1Z"/>
  </g>
  <g>
    <path class="st0" d="M246.5,1218.9c15,10.2,34.8,17.1,57,17.1,37.2,0,59.7-19.8,59.7-48.1s-13.3-41.3-51.9-53.6c-46.1-14.7-64.5-33.4-64.5-63.5s29-59,71.3-59,42.3,5.8,51.2,11.6l-6.5,14c-6.5-4.4-22.9-11.9-45.4-11.9-41.3,0-54.2,24.9-54.2,43s14.7,38.5,51.9,50.5c42,13.6,64.5,30,64.5,67.2s-23.2,63.8-78.1,63.8-47.4-6.8-61.4-17.1l6.5-14h-.1Z"/>
    <path class="st0" d="M450.2,1033.3v48.8h51.9v13.3h-51.9v104.7c0,20.1,6.1,35.5,26.3,35.5s16.7-1.4,21.5-3.1l2,13c-5.8,2.4-14.3,4.4-25.2,4.4s-23.5-4.1-30.4-12.3c-8.2-9.2-10.9-24.2-10.9-39.6v-102.7h-30v-13.3h30v-43.7l16.7-5.1h0Z"/>
    <path class="st0" d="M682.1,1206.3c0,13.3.3,26.3,1.4,39.6h-15.7l-1-33.1h-.7c-9.9,18.1-30.7,37.2-63.8,37.2s-61.7-6.5-61.7-76.1v-91.8h16.7v88.4c0,38.2,13.3,64.8,49.5,64.8s45.7-15.7,54.6-34.8c2-5.1,4.1-11.9,4.1-19.1v-99.3h16.7v124.2h0Z"/>
    <path class="st0" d="M887.5,1001.6v204.7c0,13.3.3,26.3,1.4,39.6h-15.4l-1-34.1h-.7c-9.6,20.5-32.1,38.2-66.2,38.2s-78.8-36.8-78.8-82.2c-.3-53.2,36.5-89.7,82.6-89.7s53.6,18.1,60.7,31.4h.7v-107.8h16.7ZM870.8,1147.9c0-4.8-.7-11.3-2-16-7.2-22.2-28.3-40.3-59-40.3s-66.2,29.7-66.2,74,21.5,70.6,65.8,70.6,52.5-19.1,59.4-45c1.4-4.4,2-8.9,2-14.3v-29h0Z"/>
    <path class="st0" d="M969.7,1033.7c0,7.5-5.5,14.7-14.3,14.7s-13.3-7.2-13.3-14.7,6.1-14.7,14-14.7,13.6,6.8,13.6,14.7ZM947.6,1245.8v-163.7h16.7v163.7h-16.7Z"/>
    <path class="st0" d="M1181.2,1161.9c0,61.4-47.8,88-88,88s-84.3-35.8-84.3-84.3,40.9-87.7,86.6-87.7,85.6,37.2,85.6,83.9h0ZM1025.7,1164.6c0,45.7,33.1,71.6,68.6,71.6s70.3-26.3,70.3-73.3-20.8-71.3-68.9-71.3-69.9,34.8-69.9,73h0Z"/>
    <path class="st0" d="M1219.1,1223.7c9.9,6.1,24.6,12.3,40.9,12.3,28.7,0,41.3-15,41.3-31.7s-13-28.3-38.5-36.5c-29.7-9.6-44.3-24.9-44.3-44.3s18.4-45.4,53.9-45.4,30,4.4,39.6,10.9l-6.5,13.6c-5.5-3.8-17.4-10.6-36.2-10.6s-34.5,13.6-34.5,29.3,14,25.6,38.2,33.8c30,10.2,44.7,23.2,44.7,47.8s-21.8,47.1-59,47.1-33.4-4.8-45.7-11.9l6.1-14.3h0Z"/>
  </g>
</svg>