<?xml version="1.0" encoding="UTF-8"?>
<svg id="Layer_1" xmlns="http://www.w3.org/2000/svg" version="1.1" viewBox="0 0 3497.6 792">
  <!-- Generator: Adobe Illustrator 29.1.0, SVG Export Plug-In . SVG Version: 2.1.0 Build 142)  -->
  <defs>
    <style>
      .st0 {
        fill: #fa5142;
      }
    </style>
  </defs>
  <g>
    <path class="st0" d="M415.4,542.4h-236.7v-106.9l236.7-281.4h113.3v287.5h58.7v100.8h-58.7v87.4h-113.3v-87.4h0ZM415.4,441.6v-147.2l-125.1,147.2h125.1Z"/>
    <path class="st0" d="M706.1,378.5c-20.4-10.8-35.3-23-44.7-36.4-12.8-18.3-19.1-39.3-19.1-63.2,0-39.1,18.4-71.1,55.2-96,28.7-19.1,66.7-28.7,113.9-28.7s108.7,11.9,138.6,35.7c29.9,23.8,44.8,53.8,44.8,90s-6,40.7-17.9,59c-8.9,13.6-23,26.8-42.1,39.6,25.3,12.1,44.2,28.2,56.6,48.2,12.4,20,18.7,42.1,18.7,66.4s-5.4,45.3-16.1,65.6c-10.7,20.3-23.9,36-39.6,47.1-15.6,11.1-35.1,19.2-58.4,24.4-23.3,5.2-48.1,7.8-74.5,7.8-49.6,0-87.4-5.9-113.6-17.5s-46.1-28.9-59.7-51.7c-13.6-22.8-20.4-48.2-20.4-76.3s6.4-50.7,19.1-69.7c12.8-19,32.4-33.8,59-44.2h.2ZM757.4,487.9c0,20.6,6.3,37.5,18.8,50.6s26.9,19.6,43.1,19.6,29.5-6.6,41.8-19.9c12.3-13.3,18.5-30.2,18.5-50.6s-6.2-37.5-18.7-50.7c-12.4-13.2-26.9-19.8-43.2-19.8s-30.3,6.4-42.3,19.1c-12,12.8-18,30-18,51.7h0ZM764.4,286.6c0,16.2,5,29.2,15.2,39.1,10.1,9.9,23.6,14.8,40.4,14.8s27.1-4.9,36.7-14.7c9.6-9.8,14.4-22.4,14.4-38s-5-29.3-15-39.4-22.8-15.2-38.3-15.2-28.6,4.9-38.4,14.8c-9.9,9.9-14.8,22.7-14.8,38.4l-.2.2Z"/>
  </g>
  <g>
    <path class="st0" d="M1162.5,584.2c30.3,20.7,70.3,34.5,115.1,34.5,75.1,0,120.6-40,120.6-97.2s-26.9-83.4-104.8-108.2c-93.1-29.6-130.3-67.6-130.3-128.2s58.6-119.3,144.1-119.3,85.5,11.7,103.4,23.4l-13.1,28.3c-13.1-9-46.2-24.1-91.7-24.1-83.4,0-109.6,50.3-109.6,86.9s29.6,77.9,104.8,102c84.8,27.6,130.3,60.7,130.3,135.8s-46.9,128.9-157.9,128.9-95.8-13.8-124.1-34.5l13.1-28.3h0Z"/>
    <path class="st0" d="M1574.1,209.2v98.6h104.8v26.9h-104.8v211.7c0,40.7,12.4,71.7,53.1,71.7s33.8-2.8,43.4-6.2l4.1,26.2c-11.7,4.8-29,9-51,9s-47.6-8.3-61.4-24.8c-16.5-18.6-22.1-48.9-22.1-80v-207.5h-60.7v-26.9h60.7v-88.2l33.8-10.3v-.2Z"/>
    <path class="st0" d="M2042.9,558.7c0,26.9.7,53.1,2.8,80h-31.7l-2.1-66.9h-1.4c-20,36.5-62,75.1-128.9,75.1s-124.8-13.1-124.8-153.7v-185.5h33.8v178.6c0,77.2,26.9,131,100,131s92.4-31.7,110.3-70.3c4.1-10.3,8.3-24.1,8.3-38.6v-200.6h33.8v251h-.1Z"/>
    <path class="st0" d="M2458,145.1v413.7c0,26.9.7,53.1,2.8,80h-31l-2.1-68.9h-1.4c-19.3,41.4-64.8,77.2-133.7,77.2s-159.3-74.5-159.3-166.2c-.7-107.5,73.8-181.3,166.8-181.3s108.2,36.5,122.7,63.4h1.4v-217.9h33.8ZM2424.2,440.8c0-9.7-1.4-22.8-4.1-32.4-14.5-44.8-57.2-81.4-119.3-81.4s-133.7,60-133.7,149.6,43.4,142.7,133.1,142.7,106.2-38.6,120-91c2.8-9,4.1-17.9,4.1-29v-58.6h-.1Z"/>
    <path class="st0" d="M2624.1,209.9c0,15.2-11,29.6-29,29.6s-26.9-14.5-26.9-29.6,12.4-29.6,28.3-29.6,27.6,13.8,27.6,29.6h0ZM2579.3,638.7v-330.9h33.8v330.9h-33.8Z"/>
    <path class="st0" d="M3051.5,469.1c0,124.1-96.5,177.9-177.9,177.9s-170.3-72.4-170.3-170.3,82.7-177.2,175.1-177.2,173,75.1,173,169.6h0ZM2737.2,474.6c0,92.4,66.9,144.8,138.6,144.8s142-53.1,142-148.2-42.1-144.1-139.3-144.1-141.3,70.3-141.3,147.5Z"/>
    <path class="st0" d="M3128.1,593.9c20,12.4,49.6,24.8,82.7,24.8,57.9,0,83.4-30.3,83.4-64.1s-26.2-57.2-77.9-73.8c-60-19.3-89.6-50.3-89.6-89.6s37.2-91.7,108.9-91.7,60.7,9,80,22.1l-13.1,27.6c-11-7.6-35.2-21.4-73.1-21.4s-69.6,27.6-69.6,59.3,28.3,51.7,77.2,68.3c60.7,20.7,90.3,46.9,90.3,96.5s-44.1,95.1-119.3,95.1-67.6-9.7-92.4-24.1l12.4-29h.1Z"/>
  </g>
</svg>